<svg xmlns="http://www.w3.org/2000/svg" viewBox="0 0 320 200" fill="none" role="img" aria-hidden="true">
  <rect width="320" height="200" rx="16" fill="#F7F2EA"/>
  <path d="M160 34l18 36 40 6-29 28 7 40-36-19-36 19 7-40-29-28 40-6z" fill="#BB5E3C" opacity=".22" stroke="#BB5E3C" stroke-width="2" stroke-linejoin="round"/>
  <path d="M132 126v-58c0-14 12-26 28-26h0c16 0 28 12 28 26v58" fill="#FFFDF9" stroke="#4B352A" stroke-width="2"/>
  <path d="M124 126h72c8 0 14 6 14 14v8H110v-8c0-8 6-14 14-14z" fill="#E9E6DD" stroke="#4B352A" stroke-width="2"/>
  <path d="M148 98c6-8 16-12 26-12" stroke="#BB5E3C" stroke-width="2" stroke-linecap="round"/>
  <path d="M156 156c0 10-8 18-18 18h-4" stroke="#4B352A" stroke-width="2" stroke-linecap="round" opacity=".45"/>
  <path d="M184 156c0 10 8 18 18 18h4" stroke="#4B352A" stroke-width="2" stroke-linecap="round" opacity=".45"/>
</svg>
