<svg xmlns="http://www.w3.org/2000/svg" viewBox="0 0 420 720" font-family="Inter, Arial, sans-serif">
  <style>
    .phone{fill:#1a1410;stroke:#4a3d34;stroke-width:3;rx:24}
    .card{fill:#2a221c;stroke:#4a3d34;rx:12}
    .w{fill:#fff;font-size:13px}.g{fill:#c9bfb0;font-size:11px}.n{fill:#BB5E3C;font-weight:700;font-size:14px}
    .btn{fill:#BB5E3C;rx:8}.field{fill:#3a3028;stroke:#5a4d44;rx:6}
  </style>
  <rect width="420" height="720" fill="#F5F0E8"/>
  <text x="210" y="28" text-anchor="middle" font-size="16" font-weight="700" fill="#4B352A">Panel Juez (móvil)</text>
  <text x="210" y="48" text-anchor="middle" class="g" fill="#6B5346">/jurado/juez?pin=v60sensorial&amp;juez=1</text>

  <rect class="phone" x="50" y="65" width="320" height="620"/>
  <rect x="170" y="75" width="80" height="6" fill="#4a3d34" rx="3"/>

  <text x="70" y="105" class="n">`</text><text x="88" y="105" fill="#fff" font-size="12" font-weight="600">Badge Juez 1</text>
  <text x="70" y="125" class="g" fill="#c9bfb0">Primera vez: onboarding nombre + foto</text>

  <rect class="card" x="65" y="140" width="290" height="55"/>
  <text x="80" y="162" class="n">a</text><text x="98" y="162" fill="#fff" font-size="11" font-weight="600">Competidor a calificar</text>
  <rect class="field" x="80" y="170" width="260" height="22"/><text x="90" y="185" fill="#c9bfb0" font-size="10"> Selecciona competidor  ỳ</text>

  <rect class="card" x="65" y="210" width="290" height="340"/>
  <text x="80" y="232" class="n">b</text><text x="98" y="232" fill="#fff" font-size="11" font-weight="600">Criterios (dropdowns 15)</text>
  <text x="80" y="252" class="g" fill="#c9bfb0">Aroma ṖṖṖṖṖṖṖṖṖṖṖṖṖ [4 ỳ]</text>
  <text x="80" y="272" class="g" fill="#c9bfb0">Dulzor ṖṖṖṖṖṖṖṖṖṖṖṖ [3 ỳ]</text>
  <text x="80" y="292" class="g" fill="#c9bfb0">Acidez ṖṖṖṖṖṖṖṖṖṖṖṖ [4 ỳ]</text>
  <text x="80" y="312" class="g" fill="#c9bfb0">Sabor ṖṖṖṖṖṖṖṖṖṖṖṖ [5 ỳ]</text>
  <text x="80" y="332" class="g" fill="#c9bfb0">Balance ṖṖṖṖṖṖṖṖṖṖ [4 ỳ]</text>
  <text x="80" y="352" class="g" fill="#c9bfb0">Cuerpo ṖṖṖṖṖṖṖṖṖṖṖ [3 ỳ]</text>
  <text x="80" y="372" class="g" fill="#c9bfb0">Limpieza taza ṖṖṖṖ [4 ỳ]</text>
  <rect x="80" y="390" width="260" height="40" fill="#3a3028" rx="6"/>
  <text x="210" y="408" text-anchor="middle" fill="#BB5E3C" font-size="12" font-weight="700">Tu subtotal: 27 pts</text>
  <text x="210" y="422" text-anchor="middle" fill="#c9bfb0" font-size="9">Máx. 35 pts</text>
  <text x="80" y="448" class="n">c</text><text x="98" y="448" fill="#fff" font-size="10">Notas opcionales (textarea)</text>
  <rect class="field" x="80" y="455" width="260" height="35"/>

  <rect class="btn" x="65" y="565" width="290" height="36"/>
  <text x="210" y="588" text-anchor="middle" fill="#fff" font-size="12" font-weight="600">d Guardar mi calificación</text>

  <text x="70" y="625" class="n">e</text><text x="88" y="625" fill="#c9bfb0" font-size="10">Solo guarda TU columna (j1, j2&)</text>
  <text x="70" y="642" fill="#c9bfb0" font-size="10">Organizador ve estado  por juez</text>
  <text x="70" y="659" fill="#c9bfb0" font-size="10">No puedes ver/editar otros jueces</text>
</svg>
